<svg width="186" height="38" viewBox="0 0 186 38" fill="none" xmlns="http://www.w3.org/2000/svg">
<path opacity="0.5" d="M40.0652 0.256714L30.2601 34.9917C30.2102 35.1494 30.0108 35.1967 29.8945 35.0863L23.3301 28.8583L28.2492 11.4514C28.2991 11.2937 28.1495 11.1518 27.9833 11.1991L9.63617 15.8662L3.10498 9.66969C2.98865 9.55932 3.03851 9.37011 3.20469 9.32281L39.7993 0.00444022C39.9655 -0.027094 40.115 0.11481 40.0652 0.256714Z" fill="#8284FA"/>
<path opacity="0.5" d="M23.3297 28.858L20.8037 37.8452C20.7538 38.0029 20.5544 38.0502 20.4381 37.9398L0.0634003 18.6251C-0.0529313 18.5147 -0.00307518 18.3255 0.163113 18.2782L9.63583 15.8658L23.3297 28.858Z" fill="#8284FA"/>
<path d="M28.2484 11.4511L23.3292 28.858L9.63533 15.8659L27.9825 11.1988C28.1487 11.1515 28.2982 11.2934 28.2484 11.4511Z" fill="#8284FA"/>
<path d="M53.4669 28V10.72H67.3869C67.9949 10.72 68.5549 10.872 69.0669 11.176C69.5789 11.48 69.9869 11.888 70.2909 12.4C70.5949 12.896 70.7469 13.448 70.7469 14.056V24.664C70.7469 25.272 70.5949 25.832 70.2909 26.344C69.9869 26.84 69.5789 27.24 69.0669 27.544C68.5549 27.848 67.9949 28 67.3869 28H53.4669ZM56.8989 24.808H67.2429C67.3229 24.808 67.3949 24.784 67.4589 24.736C67.5229 24.672 67.5549 24.6 67.5549 24.52V14.2C67.5549 14.12 67.5229 14.056 67.4589 14.008C67.3949 13.944 67.3229 13.912 67.2429 13.912H56.8989C56.8189 13.912 56.7469 13.944 56.6829 14.008C56.6349 14.056 56.6109 14.12 56.6109 14.2V24.52C56.6109 24.6 56.6349 24.672 56.6829 24.736C56.7469 24.784 56.8189 24.808 56.8989 24.808ZM79.6265 28V13.912H72.5705V10.72H89.8505V13.912H82.8185V28H79.6265ZM98.9814 28V10.72H102.461L108.725 18.184L114.965 10.72H118.469V28H115.277V15.328L108.725 23.128L102.149 15.352V28H98.9814ZM124.439 28C123.831 28 123.279 27.848 122.783 27.544C122.287 27.24 121.887 26.84 121.583 26.344C121.279 25.848 121.127 25.296 121.127 24.688V17.392C121.127 16.784 121.279 16.232 121.583 15.736C121.887 15.24 122.287 14.84 122.783 14.536C123.279 14.232 123.831 14.08 124.439 14.08H131.951C132.559 14.08 133.111 14.232 133.607 14.536C134.119 14.84 134.519 15.24 134.807 15.736C135.111 16.232 135.263 16.784 135.263 17.392V24.688C135.263 25.296 135.111 25.848 134.807 26.344C134.519 26.84 134.127 27.24 133.631 27.544C133.135 27.848 132.575 28 131.951 28H124.439ZM124.559 24.856H131.831C131.911 24.856 131.975 24.832 132.023 24.784C132.087 24.72 132.119 24.648 132.119 24.568V17.512C132.119 17.432 132.087 17.368 132.023 17.32C131.975 17.256 131.911 17.224 131.831 17.224H124.559C124.479 17.224 124.407 17.256 124.343 17.32C124.295 17.368 124.271 17.432 124.271 17.512V24.568C124.271 24.648 124.295 24.72 124.343 24.784C124.407 24.832 124.479 24.856 124.559 24.856ZM137.23 28V14.08H148.054C148.662 14.08 149.214 14.232 149.71 14.536C150.222 14.84 150.622 15.24 150.91 15.736C151.214 16.232 151.366 16.784 151.366 17.392V28H148.222V17.512C148.222 17.432 148.19 17.368 148.126 17.32C148.078 17.256 148.014 17.224 147.934 17.224H140.662C140.582 17.224 140.51 17.256 140.446 17.32C140.398 17.368 140.374 17.432 140.374 17.512V28H137.23ZM156.689 28C156.081 28 155.529 27.848 155.033 27.544C154.537 27.24 154.137 26.84 153.833 26.344C153.529 25.848 153.377 25.296 153.377 24.688V17.392C153.377 16.784 153.529 16.232 153.833 15.736C154.137 15.24 154.537 14.84 155.033 14.536C155.529 14.232 156.081 14.08 156.689 14.08H164.201C164.809 14.08 165.361 14.232 165.857 14.536C166.369 14.84 166.769 15.24 167.057 15.736C167.361 16.232 167.513 16.784 167.513 17.392V22.624H156.521V24.568C156.521 24.648 156.545 24.72 156.593 24.784C156.657 24.832 156.729 24.856 156.809 24.856H167.513V28H156.689ZM156.521 19.792H164.369V17.512C164.369 17.432 164.337 17.368 164.273 17.32C164.225 17.256 164.161 17.224 164.081 17.224H156.809C156.729 17.224 156.657 17.256 156.593 17.32C156.545 17.368 156.521 17.432 156.521 17.512V19.792ZM171.942 33.16V29.992H180.318C180.398 29.992 180.462 29.96 180.51 29.896C180.574 29.848 180.606 29.784 180.606 29.704V28H172.926C172.334 28 171.782 27.848 171.27 27.544C170.774 27.24 170.374 26.84 170.07 26.344C169.766 25.848 169.614 25.296 169.614 24.688V14.128H172.758V24.568C172.758 24.648 172.782 24.72 172.83 24.784C172.894 24.832 172.966 24.856 173.046 24.856H180.318C180.398 24.856 180.462 24.832 180.51 24.784C180.574 24.72 180.606 24.648 180.606 24.568V14.128H183.75V29.848C183.75 30.456 183.606 31.008 183.318 31.504C183.03 32.016 182.63 32.416 182.118 32.704C181.622 33.008 181.07 33.16 180.462 33.16H171.942Z" fill="#E1E1E6"/>
</svg>
